<svg id="Calque_1" data-name="Calque 1" xmlns="http://www.w3.org/2000/svg" viewBox="0 0 276.62 116.45"><title>logo</title><polygon points="0 116.45 31.18 0 56.85 0 88.03 116.45 61.74 116.45 44.01 47.68 25.98 116.45 0 116.45" style="fill:#f5a722"/><path d="M109.2,6.77l.61,81.92s-.61,7-8.87,8.25v26.29s34.54-3.06,34.54-32.1V6.77Z" transform="translate(-6.19 -6.77)" style="fill:#f5a722"/><rect x="150.75" y="29.8" width="12.04" height="4.38" style="fill:#f5a722"/><polygon points="171.55 18.85 164.98 44.02 171.55 44.02 174.83 29.8 179.21 44.02 184.68 44.02 177.02 18.85 171.55 18.85" style="fill:#f5a722"/><path d="M205.36,43.14a4.92,4.92,0,0,1-9-2.74V34.93a4.91,4.91,0,0,1,9.54-1.64h5.71a9.88,9.88,0,0,0-9.78-8.76h-1.1a9.88,9.88,0,0,0-9.85,9.85V41a9.88,9.88,0,0,0,9.85,9.85h1.1a9.88,9.88,0,0,0,9.59-7.66Z" transform="translate(-6.19 -6.77)" style="fill:#f5a722"/><path d="M229.44,43.14a4.92,4.92,0,0,1-9-2.74V34.93A4.91,4.91,0,0,1,230,33.29h5.71a9.88,9.88,0,0,0-9.78-8.76h-1.1A9.88,9.88,0,0,0,215,34.38V41a9.88,9.88,0,0,0,9.85,9.85h1.1a9.88,9.88,0,0,0,9.59-7.66Z" transform="translate(-6.19 -6.77)" style="fill:#f5a722"/><path d="M257.64,24.53h-1.1a9.88,9.88,0,0,0-9.85,9.85V41a9.88,9.88,0,0,0,9.85,9.85h1.1A9.88,9.88,0,0,0,267.49,41V34.38A9.88,9.88,0,0,0,257.64,24.53ZM262,40.4a4.93,4.93,0,1,1-9.85,0V34.93a4.93,4.93,0,1,1,9.85,0Z" transform="translate(-6.19 -6.77)" style="fill:#f5a722"/><rect x="232.84" y="17.76" width="5.47" height="26.27" style="fill:#f5a722"/><rect x="264.58" y="29.8" width="12.04" height="4.38" style="fill:#f5a722"/><path d="M190.46,61.78l.17,23.07a2.72,2.72,0,0,1-2.49,2.32v7.41s9.72-.86,9.72-9V61.78Z" transform="translate(-6.19 -6.77)" style="fill:#18152d"/><path d="M215,61.74h-4.56a9.88,9.88,0,0,0-9.85,9.85v11a9.88,9.88,0,0,0,9.85,9.85H215a9.88,9.88,0,0,0,9.85-9.85v-11A9.88,9.88,0,0,0,215,61.74Zm3.47,19.34A4.94,4.94,0,0,1,213.58,86h-1.64A4.93,4.93,0,0,1,207,81.08v-8a4.93,4.93,0,0,1,4.92-4.92h1.64a4.94,4.94,0,0,1,4.93,4.92Z" transform="translate(-6.19 -6.77)" style="fill:#18152d"/><path d="M250.73,80.35a10.5,10.5,0,0,0-2.85-3.08,9.49,9.49,0,0,0,2.36-2.85,9.33,9.33,0,0,0,.71-4.06,9.18,9.18,0,0,0-1.37-5.13,6.82,6.82,0,0,0-3.45-2.84,21.21,21.21,0,0,0-6.48-.72H227V93.24h16.61a7.59,7.59,0,0,0,5.81-2.34,10.32,10.32,0,0,0,1.3-10.55Zm-8.52,6.56h-6.87a2.2,2.2,0,0,1,0-4.37h6.87a2.2,2.2,0,0,1,0,4.37Zm0-14.22h-6.87a2.2,2.2,0,0,1,0-4.38h6.87a2.2,2.2,0,0,1,0,4.38Z" transform="translate(-6.19 -6.77)" style="fill:#18152d"/></svg>