<svg id="Calque_1" data-name="Calque 1" xmlns="http://www.w3.org/2000/svg" viewBox="0 0 287.54 372"><title>logo-login</title><polygon points="0 258.99 69.33 0 126.44 0 195.77 258.99 137.31 258.99 97.89 106.04 57.78 258.99 0 258.99" style="fill:#f5a621"/><path d="M285.31,14l1.36,182.17s-1.36,15.64-19.71,18.36V273s76.81-6.8,76.81-71.38V14Z" transform="translate(-56.23 -14)" style="fill:#f5a621"/><rect x="66.41" y="300.69" width="14.8" height="5.38" style="fill:#f5a621"/><polygon points="91.97 287.24 83.9 318.18 91.97 318.18 96.01 300.69 101.39 318.18 108.12 318.18 98.7 287.24 91.97 287.24" style="fill:#f5a621"/><path d="M182.15,322.77a6,6,0,0,1-11.08-3.37v-6.72a6,6,0,0,1,11.74-2h7a12.15,12.15,0,0,0-12-10.76h-1.34A12.14,12.14,0,0,0,164.35,312v8.08a12.14,12.14,0,0,0,12.11,12.1h1.34a12.15,12.15,0,0,0,11.8-9.41Z" transform="translate(-56.23 -14)" style="fill:#f5a621"/><path d="M211.75,322.77a6,6,0,0,1-11.08-3.37v-6.72a6,6,0,0,1,11.74-2h7a12.15,12.15,0,0,0-12-10.76h-1.35A12.13,12.13,0,0,0,194,312v8.08a12.13,12.13,0,0,0,12.1,12.1h1.35a12.14,12.14,0,0,0,11.79-9.41Z" transform="translate(-56.23 -14)" style="fill:#f5a621"/><path d="M246.42,299.9h-1.35A12.14,12.14,0,0,0,233,312v8.08a12.14,12.14,0,0,0,12.11,12.1h1.35a12.13,12.13,0,0,0,12.1-12.1V312A12.13,12.13,0,0,0,246.42,299.9Zm5.38,19.5a6.06,6.06,0,1,1-12.11,0v-6.72a6.06,6.06,0,1,1,12.11,0Z" transform="translate(-56.23 -14)" style="fill:#f5a621"/><rect x="167.31" y="285.9" width="6.73" height="32.29" style="fill:#f5a621"/><rect x="206.33" y="300.69" width="14.8" height="5.38" style="fill:#f5a621"/><path d="M163.84,345.69l.21,28.35A3.36,3.36,0,0,1,161,376.9V386s12-1.06,12-11.11v-29.2Z" transform="translate(-56.23 -14)" style="fill:#0d0e2f"/><path d="M194.06,345.64h-5.61a12.15,12.15,0,0,0-12.11,12.11V371.2a12.15,12.15,0,0,0,12.11,12.11h5.61a12.15,12.15,0,0,0,12.11-12.11V357.75A12.15,12.15,0,0,0,194.06,345.64Zm4.26,23.77a6.07,6.07,0,0,1-6.06,6h-2a6.07,6.07,0,0,1-6.06-6v-9.87a6.07,6.07,0,0,1,6.06-6.05h2a6.07,6.07,0,0,1,6.06,6.05Z" transform="translate(-56.23 -14)" style="fill:#0d0e2f"/><path d="M237.92,368.52a12.47,12.47,0,0,0-3.5-3.79,9.43,9.43,0,0,0,3.78-8.5,11.25,11.25,0,0,0-1.69-6.3,8.33,8.33,0,0,0-4.23-3.49,26.13,26.13,0,0,0-8-.89H208.76v38.81h20.42a9.33,9.33,0,0,0,7.15-2.88,12.65,12.65,0,0,0,1.59-13Zm-10.46,8.06H219a2.71,2.71,0,0,1,0-5.38h8.45a2.71,2.71,0,0,1,0,5.38Zm0-17.49H219a2.71,2.71,0,0,1,0-5.38h8.45a2.71,2.71,0,0,1,0,5.38Z" transform="translate(-56.23 -14)" style="fill:#0d0e2f"/></svg>